PathFileType	4	(X/Y/Z)	./resultDataOpenSim/trcMotMarkerGrf/sub10/qtm-05-08.trc
DataRate	CameraRate	NumFrames	NumMarkers	Units	OrigDataRate	OrigDataStartFrame	OrigNumFrames
250.000000	250.000000	11	24	m	250.000000	199	529
Frame#	Time	L.Toe.Tip			R.Toe.Tip			L.Ankle.Lat			R.Ankle.Lat			L.Ankle.Med			R.Ankle.Med			L.Heel			R.Heel			L.Knee.Lat			R.Knee.Lat			L.Knee.Med			R.Knee.Med			L.Thigh.Upper			R.Thigh.Upper			L.ASIS			R.ASIS			V.Sacral			L.Acromium			R.Acromium			C7			L.Elbow			R.Elbow			L.Wrist.Lat			R.Wrist.Lat
		X1	Y1	Z1	X2	Y2	Z2	X3	Y3	Z3	X4	Y4	Z4	X5	Y5	Z5	X6	Y6	Z6	X7	Y7	Z7	X8	Y8	Z8	X9	Y9	Z9	X10	Y10	Z10	X11	Y11	Z11	X12	Y12	Z12	X13	Y13	Z13	X14	Y14	Z14	X15	Y15	Z15	X16	Y16	Z16	X17	Y17	Z17	X18	Y18	Z18	X19	Y19	Z19	X20	Y20	Z20	X21	Y21	Z21	X22	Y22	Z22	X23	Y23	Z23	X24	Y24	Z24

199	0.792	0.036140345	-0.057584429	-0.093097859	-0.72723847	0.039582729	0.056372976	-0.10165242	-0.029102432	-0.13624778	-0.841095	0.12014088	0.079688326	-0.10016867	-0.0065607884	-0.05407636	-0.80155991	0.12361932	-0.0017616016	-0.16499723	-0.056916014	-0.095918856	-0.89244584	0.12048294	0.026069263	-0.10618102	0.36044623	-0.1555728	-0.53468595	0.38083686	0.10982986	-0.098069075	0.33641922	-0.03607154	-0.49918768	0.36468378	-0.013686437	-0.21432292	0.73133945	-0.20205481	-0.37581503	0.75059062	0.15825148	-0.18452762	0.83506337	-0.1144962	-0.26007736	0.82499116	0.11986809	-0.41098295	0.84888705	-0.069742931	-0.32088994	1.2919648	-0.19738988	-0.33601783	1.3060641	0.1294222	-0.41279614	1.323207	-0.044993425	-0.45273223	0.97985054	-0.23561311	-0.33030728	0.94519585	0.18696606	-0.40758489	0.75384274	-0.30950805	-0.098049555	0.85259378	0.18051562
200	0.796	0.036084081	-0.057746062	-0.092917264	-0.72643807	0.039487083	0.056404787	-0.1014515	-0.030681417	-0.13587539	-0.83736699	0.12419269	0.080030551	-0.10073077	-0.0083240713	-0.053681287	-0.79682698	0.12586793	-0.00066400875	-0.16526174	-0.058276649	-0.0958072	-0.88818683	0.12585296	0.025947823	-0.10018567	0.35874795	-0.15494526	-0.52701044	0.37971323	0.11045527	-0.094044468	0.33457953	-0.035155087	-0.49173096	0.36262953	-0.012492858	-0.20618491	0.73050092	-0.20321268	-0.36777935	0.7484073	0.15772741	-0.17753713	0.83344605	-0.11495005	-0.25271534	0.82284835	0.11910688	-0.40359511	0.84779331	-0.070589474	-0.31418365	1.2902655	-0.19852228	-0.32952157	1.3047981	0.12840359	-0.40612093	1.3215633	-0.046130153	-0.44450075	0.97779992	-0.23602304	-0.32540338	0.94385317	0.18535035	-0.40095092	0.75162219	-0.31060425	-0.093567913	0.84959755	0.18037848
201	0.8	0.035989597	-0.057872744	-0.092720906	-0.72558938	0.03935671	0.05641768	-0.10141582	-0.031956924	-0.13547788	-0.83324311	0.12836037	0.080302716	-0.10115696	-0.0097734647	-0.053167144	-0.79171821	0.12822445	0.00046441607	-0.16556297	-0.059215401	-0.095601578	-0.88334169	0.13139007	0.025843165	-0.094367598	0.35723708	-0.15426871	-0.51858202	0.37838698	0.11104178	-0.090151803	0.33290361	-0.034243082	-0.48386422	0.36041149	-0.011087304	-0.19825623	0.729934	-0.20439043	-0.35974113	0.74623602	0.1572276	-0.17067671	0.83188381	-0.11539855	-0.24535835	0.82076695	0.11823963	-0.3961956	0.84669785	-0.071593166	-0.30740373	1.2886318	-0.19965964	-0.32296104	1.3036078	0.12735441	-0.39943285	1.3200101	-0.047250067	-0.43621165	0.97576996	-0.23651526	-0.32035034	0.94269295	0.18377465	-0.39403965	0.74944488	-0.311624	-0.08917701	0.84655904	0.18031115
202	0.804	0.035950316	-0.057964541	-0.092534951	-0.72468847	0.039192763	0.056430834	-0.10136206	-0.032775141	-0.1350671	-0.82866194	0.13262102	0.080507597	-0.10129287	-0.010852484	-0.052538322	-0.78624436	0.13078077	0.00159372	-0.16579056	-0.059765419	-0.095311109	-0.87766632	0.13713467	0.025583826	-0.088703605	0.35599878	-0.1535402	-0.50949419	0.37676983	0.11140391	-0.086342702	0.33147778	-0.033429343	-0.475337	0.35788873	-0.0096630769	-0.19064903	0.72966799	-0.20553515	-0.35172031	0.74406331	0.15673567	-0.16397566	0.83040872	-0.1158574	-0.23797744	0.81876191	0.11725339	-0.38879162	0.845618	-0.072773383	-0.30056627	1.2870684	-0.20079528	-0.31631583	1.302517	0.12631222	-0.39274947	1.3185515	-0.048357374	-0.42778568	0.97375509	-0.23719233	-0.31517772	0.94170376	0.18216343	-0.38685768	0.7473213	-0.31257605	-0.084883313	0.84348684	0.18032003
203	0.808	0.03602102	-0.058026123	-0.092379925	-0.72371943	0.039001607	0.056472526	-0.10108791	-0.033105293	-0.13463351	-0.82353121	0.13695276	0.080650951	-0.10110043	-0.011510212	-0.051891051	-0.7803	0.1334535	0.0027397932	-0.16587724	-0.059952602	-0.094976276	-0.8711213	0.14307263	0.025124793	-0.083067428	0.35509167	-0.15281702	-0.4999993	0.37494009	0.11161207	-0.08255963	0.33038956	-0.032794949	-0.46605207	0.35498622	-0.0083017036	-0.18343366	0.72969018	-0.2066303	-0.34374568	0.74187269	0.15623411	-0.15744014	0.82905143	-0.11634517	-0.23056811	0.81684153	0.1161553	-0.38157891	0.84463267	-0.073907026	-0.29371213	1.2855842	-0.20191698	-0.30959955	1.301544	0.12531386	-0.38608565	1.3172051	-0.049453608	-0.41924634	0.97177481	-0.23794373	-0.31001747	0.94082707	0.1804797	-0.37940767	0.74525963	-0.31346025	-0.080715218	0.84038988	0.18040664
204	0.812	0.036199185	-0.058064234	-0.092267146	-0.72266189	0.038791865	0.056569991	-0.10052116	-0.033054971	-0.13417615	-0.81772386	0.14136459	0.080759074	-0.10064542	-0.011745171	-0.051324725	-0.7737986	0.13606586	0.0039167535	-0.16582478	-0.059847276	-0.094668683	-0.863887	0.14915123	0.024523472	-0.077325148	0.35451001	-0.15217559	-0.4901777	0.37302832	0.11190233	-0.078727988	0.32970984	-0.032356556	-0.45603147	0.35170335	-0.0069680023	-0.17662528	0.72994467	-0.20769145	-0.33583547	0.73966673	0.15571769	-0.15104928	0.8278321	-0.11687478	-0.22314477	0.81500447	0.11495906	-0.37490205	0.84385987	-0.074542824	-0.2868557	1.2841947	-0.20301901	-0.30284184	1.3006862	0.12436313	-0.37944416	1.3159923	-0.050538867	-0.4107213	0.96986458	-0.23854762	-0.30494246	0.94002785	0.17872681	-0.37168136	0.74326585	-0.31426924	-0.07670154	0.8372773	0.18056045
205	0.816	0.0364431	-0.058089026	-0.092197066	-0.72151219	0.038568283	0.056737129	-0.099749261	-0.03279677	-0.13372748	-0.81117348	0.14589464	0.080859921	-0.10005857	-0.011634714	-0.05089054	-0.76681469	0.13855783	0.0050738558	-0.165677	-0.05956153	-0.09443879	-0.85614426	0.15533606	0.023882479	-0.071432445	0.35420112	-0.15166243	-0.48004571	0.37108894	0.11241227	-0.074736771	0.32946721	-0.032049752	-0.44529184	0.348052	-0.0056340008	-0.17019838	0.73035071	-0.20874252	-0.32799801	0.73745656	0.15519136	-0.14477479	0.82676555	-0.11745462	-0.21573652	0.81324954	0.11367836	-0.36891274	0.84332974	-0.074391054	-0.27998403	1.2829157	-0.20410105	-0.29606363	1.2999332	0.12344566	-0.37281077	1.3149254	-0.051614278	-0.40228862	0.96804374	-0.23897297	-0.29994172	0.93931667	0.17693926	-0.36367968	0.74134299	-0.3149993	-0.07285537	0.83416081	0.18076857
206	0.82	0.03669596	-0.05811281	-0.092165197	-0.72028018	0.038338125	0.056971019	-0.098941789	-0.032479716	-0.13334841	-0.80402072	0.15055489	0.080952672	-0.09950078	-0.011306299	-0.050596139	-0.7594726	0.14099383	0.0061591568	-0.16549295	-0.05919767	-0.094295574	-0.84798612	0.16160529	0.023350432	-0.065435212	0.35411493	-0.15128722	-0.46966496	0.36910116	0.1131249	-0.070474239	0.32962779	-0.031782111	-0.43385392	0.34402319	-0.0043241988	-0.16411426	0.7308242	-0.20979869	-0.32024848	0.73524776	0.15466592	-0.13860664	0.82587114	-0.11809519	-0.20837414	0.81158698	0.11231949	-0.36322253	0.84286629	-0.073824786	-0.27308313	1.2817554	-0.20516052	-0.28927699	1.2992845	0.12255032	-0.36616134	1.3140089	-0.052681305	-0.39392451	0.96631238	-0.23937743	-0.29498774	0.9387229	0.17515745	-0.35541797	0.73949665	-0.31565269	-0.069178767	0.83105469	0.18102087
207	0.824	0.036909625	-0.058145389	-0.092167212	-0.71894401	0.038137232	0.057255345	-0.098242863	-0.032187292	-0.13309998	-0.79653758	0.15529058	0.081026863	-0.099105901	-0.010886766	-0.050430492	-0.75180142	0.14343797	0.0071898806	-0.16532554	-0.058815305	-0.094244782	-0.83940965	0.16792298	0.023044958	-0.059411038	0.35421541	-0.15104363	-0.45907348	0.36704748	0.11398023	-0.065901878	0.33009913	-0.031505776	-0.42178044	0.33961566	-0.0030845055	-0.15833743	0.73129107	-0.21086436	-0.31261318	0.73305166	0.15416445	-0.13255055	0.82516953	-0.11881225	-0.20109108	0.81003398	0.11089211	-0.35716355	0.84222797	-0.073690174	-0.26614925	1.2807158	-0.20619042	-0.28249238	1.2987443	0.12166917	-0.35947434	1.3132432	-0.053738742	-0.38558134	0.96467126	-0.23990278	-0.29007288	0.93827077	0.1734109	-0.34690864	0.73774261	-0.31623243	-0.065673496	0.82797253	0.18130639
208	0.828	0.037061989	-0.058188759	-0.092198433	-0.71742495	0.038048441	0.057552928	-0.09770772	-0.031947143	-0.1330157	-0.78885578	0.16000506	0.081108433	-0.098897837	-0.010466332	-0.050387566	-0.7437687	0.14591051	0.0082131733	-0.16520372	-0.05843817	-0.09431399	-0.83036836	0.17425352	0.02296489	-0.053439858	0.35445323	-0.15091872	-0.4482683	0.36494878	0.114951	-0.061068833	0.33076294	-0.031234521	-0.40919923	0.33490949	-0.0019117326	-0.15282807	0.73169688	-0.21193493	-0.30512169	0.73088892	0.15372231	-0.12660587	0.82467023	-0.11961903	-0.1939548	0.80859821	0.10943888	-0.35054585	0.84141967	-0.074327559	-0.2591901	1.2798004	-0.20718058	-0.27571961	1.2983153	0.1207954	-0.35273865	1.3126252	-0.054778068	-0.37723565	0.96313086	-0.24058949	-0.28520329	0.93797509	0.17171459	-0.33814217	0.73610277	-0.31673714	-0.062341083	0.82492418	0.18161187
209	0.832	0.037157562	-0.058237855	-0.092252559	-0.71561733	0.038195698	0.057808513	-0.097311029	-0.03176128	-0.13309514	-0.78090009	0.16462718	0.081254406	-0.09878587	-0.01008635	-0.050469084	-0.73537177	0.14841645	0.0092420133	-0.16512746	-0.058075614	-0.094529179	-0.82095934	0.18057678	0.023098758	-0.047602456	0.35475432	-0.15089277	-0.43727215	0.362833	0.11604793	-0.056063789	0.33151481	-0.031012151	-0.39631013	0.33007123	-0.00071139978	-0.14753114	0.73201271	-0.21300042	-0.29780131	0.72877643	0.15337125	-0.12076417	0.82436628	-0.12051766	-0.18705562	0.80727346	0.10802793	-0.34383973	0.84069517	-0.075175878	-0.25221678	1.2790169	-0.20812057	-0.26896284	1.297997	0.11992384	-0.34595951	1.3121448	-0.055785161	-0.36888226	0.96170925	-0.24136285	-0.2803813	0.9378437	0.17006627	-0.32908611	0.73459363	-0.31716321	-0.059177152	0.82191897	0.18192459
